<svg width="30.124268" height="30.124172" viewBox="0 0 30.1243 30.1242" fill="none" xmlns="http://www.w3.org/2000/svg"
>

    <defs>
        <linearGradient x1="15.062208" y1="0" x2="15.062208" y2="30.124172" id="paint_linear_1_1396_0"
                        gradientUnits="userSpaceOnUse">
            <stop stop-color="#69D3FF"></stop>
            <stop offset="1" stop-color="#00A4E8"></stop>
        </linearGradient>
        <linearGradient x1="15.446535" y1="0" x2="15.446535" y2="29.688852" id="paint_linear_1_1396_1"
                        gradientUnits="userSpaceOnUse">
            <stop stop-color="#FFB500"></stop>
            <stop offset="1" stop-color="#F3BA2F"></stop>
        </linearGradient>
    </defs>
    <mask id="mask_1_1396" fill="white">
        <path id="Subtract"
              d="M21.7985 0L8.32593 0C3.72766 0 0.00012207 3.72758 0.00012207 8.32578L0.00012207 21.7984C0.00012207 26.3966 3.72766 30.1242 8.32593 30.1242L21.7985 30.1242C26.3967 30.1242 30.1243 26.3966 30.1243 21.7984L30.1243 8.32578C30.1243 3.72758 26.3967 0 21.7985 0ZM4.8302 11.2712C4.8385 9.47331 4.83862 9.45658 5.03857 9.25666L5.23853 9.04832L10.6636 9.04832L10.6636 9.88166C10.6636 10.6067 10.6885 10.74 10.8302 10.8817C10.9219 10.9733 11.0719 11.0483 11.1636 11.0483C11.2552 11.0483 11.4052 10.9733 11.4968 10.8817C11.6385 10.74 11.6636 10.6067 11.6636 9.04832L24.4136 9.04832L24.8302 9.46499L24.8302 13.09L24.3969 13.2483C24.1302 13.34 23.7969 13.565 23.5552 13.79C23.3219 14.015 23.0969 14.3317 23.0135 14.5483C22.9385 14.7567 22.8718 15.1317 22.8718 15.3817C22.8718 15.6317 22.9385 16.0067 23.0135 16.215C23.0969 16.4317 23.3219 16.7483 23.5552 16.9733C23.7969 17.1983 24.1302 17.4233 24.8302 17.6733L24.8302 19.4817C24.8302 21.2983 24.8302 21.2983 24.4219 21.715L11.6636 21.715L11.6636 20.8817C11.6636 20.1567 11.6385 20.0233 11.4968 19.8817C11.4052 19.79 11.2552 19.715 11.1636 19.715C11.0719 19.715 10.9219 19.79 10.8302 19.8817C10.6885 20.0233 10.6636 20.1567 10.6636 21.715L5.24683 21.715L4.8302 21.2983L4.8302 17.6733L5.26355 17.515C5.53015 17.4233 5.86353 17.1983 6.10522 16.9733C6.3385 16.7483 6.56348 16.4317 6.64685 16.215C6.72192 16.0067 6.78857 15.6317 6.78857 15.3817C6.78857 15.1317 6.72192 14.7567 6.64685 14.5483C6.56348 14.3317 6.3385 14.015 6.10522 13.79C5.86353 13.565 5.53015 13.34 4.8302 13.09L4.8302 11.2733L4.8302 11.2712ZM14.7059 12.015C14.5643 12.0816 14.3643 12.2233 14.256 12.3233C14.1476 12.4233 13.9893 12.6566 13.9059 12.84C13.8226 13.0233 13.7476 13.3233 13.7476 13.5066C13.7476 13.69 13.8143 13.99 13.8976 14.1733C13.981 14.3566 14.1809 14.6066 14.3392 14.7233C14.4976 14.8483 14.7726 14.99 14.9559 15.0483C15.1476 15.1066 15.4143 15.1233 15.5809 15.09C15.7393 15.065 16.0226 14.9483 16.2059 14.8483C16.4393 14.715 16.606 14.5233 16.7726 14.2066C16.8976 13.9566 16.9976 13.665 16.9976 13.5483C16.9976 13.4316 16.9559 13.1983 16.9143 13.0316C16.8643 12.8566 16.731 12.5983 16.5977 12.4483C16.4727 12.3066 16.2227 12.115 16.0393 12.04C15.856 11.9566 15.5393 11.8816 15.3309 11.8816C15.1226 11.8816 14.8477 11.94 14.7059 12.015ZM19.106 12.24C19.006 12.34 18.0809 13.6816 17.0476 15.215C16.006 16.7483 15.1643 18.0733 15.1643 18.1566C15.1643 18.2316 15.2393 18.3733 15.3309 18.465C15.4226 18.5566 15.5892 18.6316 15.7059 18.6316C15.8448 18.6316 15.981 18.5428 16.1143 18.365C16.2227 18.215 17.1226 16.89 18.1143 15.4233C19.256 13.7316 19.9143 12.6816 19.9143 12.5483C19.9226 12.4316 19.856 12.2733 19.7726 12.1983C19.6893 12.115 19.5476 12.0483 19.4476 12.0483C19.356 12.0483 19.1976 12.1316 19.106 12.24ZM10.6476 13.515C10.6393 12.7316 10.6559 12.5816 10.7893 12.4483C10.8726 12.365 11.0476 12.2983 11.1726 12.2983C11.3309 12.2983 11.4559 12.365 11.5393 12.49C11.6393 12.6316 11.6559 12.8816 11.6476 13.5816C11.6226 14.44 11.6143 14.4983 11.4143 14.6483C11.2393 14.79 11.1726 14.7983 10.9976 14.7066C10.881 14.6566 10.7643 14.565 10.731 14.515C10.6976 14.465 10.6559 14.015 10.6476 13.515ZM14.9126 13.0733C14.8042 13.1817 14.7208 13.3483 14.7292 13.4483C14.7375 13.5483 14.7792 13.7067 14.8292 13.7983C14.8793 13.89 15.0126 14.0067 15.1459 14.0483C15.2959 14.115 15.4375 14.115 15.5792 14.0567C15.6959 14.0067 15.8375 13.8733 15.8959 13.7567C15.9459 13.64 15.9958 13.49 15.9958 13.4233C15.9958 13.3567 15.9042 13.2067 15.7876 13.09C15.6626 12.965 15.4875 12.8817 15.3458 12.8817C15.2125 12.8817 15.0209 12.965 14.9126 13.0733ZM19.3309 15.7233C19.1726 15.7733 18.9309 15.8983 18.7893 15.9983C18.6476 16.0983 18.4559 16.3483 18.356 16.5566C18.2476 16.7566 18.1643 17.065 18.1643 17.24C18.1643 17.4066 18.2227 17.69 18.2976 17.865C18.3643 18.0316 18.506 18.265 18.606 18.365C18.7059 18.4733 18.9309 18.64 19.0977 18.7233C19.2726 18.8066 19.5643 18.8816 19.7476 18.8816C19.9309 18.8816 20.2227 18.8233 20.3893 18.7483C20.5643 18.6816 20.7976 18.54 20.9059 18.44C21.0143 18.34 21.1726 18.1066 21.256 17.9233C21.3392 17.74 21.4143 17.4816 21.4143 17.34C21.4143 17.2066 21.3726 16.9566 21.3226 16.7983C21.2643 16.64 21.1559 16.4066 21.0643 16.2816C20.981 16.1483 20.7643 15.9733 20.5809 15.8816C20.3976 15.79 20.106 15.6983 19.9309 15.6733C19.7643 15.6566 19.4893 15.6816 19.3309 15.7233ZM10.731 16.2566C10.7643 16.2066 10.8643 16.1233 10.9559 16.0733C11.0476 16.015 11.1393 15.965 11.1643 15.965C11.1893 15.965 11.3059 16.0316 11.4309 16.1316C11.6643 16.2983 11.6643 16.315 11.6643 17.1983C11.6643 17.8566 11.631 18.14 11.5393 18.2816C11.4559 18.3983 11.3309 18.465 11.1809 18.465C11.0559 18.465 10.8893 18.3983 10.8059 18.315C10.6809 18.1983 10.6559 18.0316 10.6643 17.2566C10.6643 16.7566 10.6976 16.2983 10.731 16.2566ZM19.5376 16.715C19.4375 16.7567 19.3209 16.865 19.2626 16.9567C19.2042 17.0567 19.1626 17.1983 19.1626 17.2817C19.1542 17.3567 19.2292 17.5233 19.3292 17.6567C19.4459 17.815 19.5709 17.8817 19.7458 17.8817C19.9126 17.8817 20.0792 17.8067 20.2042 17.6733C20.3209 17.5567 20.4126 17.3817 20.4126 17.2733C20.4209 17.1733 20.3542 17.0067 20.2709 16.9067C20.1875 16.8067 20.0292 16.7067 19.9126 16.6817C19.7959 16.6567 19.6292 16.6733 19.5376 16.715Z"
              clip-rule="evenodd" fill="" fill-opacity="1" fill-rule="evenodd"></path>
    </mask>
    <path id="Subtract"
          d="M21.7985 0L8.32593 0C3.72766 0 0.00012207 3.72758 0.00012207 8.32578L0.00012207 21.7984C0.00012207 26.3966 3.72766 30.1242 8.32593 30.1242L21.7985 30.1242C26.3967 30.1242 30.1243 26.3966 30.1243 21.7984L30.1243 8.32578C30.1243 3.72758 26.3967 0 21.7985 0ZM4.8302 11.2712C4.8385 9.47331 4.83862 9.45658 5.03857 9.25666L5.23853 9.04832L10.6636 9.04832L10.6636 9.88166C10.6636 10.6067 10.6885 10.74 10.8302 10.8817C10.9219 10.9733 11.0719 11.0483 11.1636 11.0483C11.2552 11.0483 11.4052 10.9733 11.4968 10.8817C11.6385 10.74 11.6636 10.6067 11.6636 9.04832L24.4136 9.04832L24.8302 9.46499L24.8302 13.09L24.3969 13.2483C24.1302 13.34 23.7969 13.565 23.5552 13.79C23.3219 14.015 23.0969 14.3317 23.0135 14.5483C22.9385 14.7567 22.8718 15.1317 22.8718 15.3817C22.8718 15.6317 22.9385 16.0067 23.0135 16.215C23.0969 16.4317 23.3219 16.7483 23.5552 16.9733C23.7969 17.1983 24.1302 17.4233 24.8302 17.6733L24.8302 19.4817C24.8302 21.2983 24.8302 21.2983 24.4219 21.715L11.6636 21.715L11.6636 20.8817C11.6636 20.1567 11.6385 20.0233 11.4968 19.8817C11.4052 19.79 11.2552 19.715 11.1636 19.715C11.0719 19.715 10.9219 19.79 10.8302 19.8817C10.6885 20.0233 10.6636 20.1567 10.6636 21.715L5.24683 21.715L4.8302 21.2983L4.8302 17.6733L5.26355 17.515C5.53015 17.4233 5.86353 17.1983 6.10522 16.9733C6.3385 16.7483 6.56348 16.4317 6.64685 16.215C6.72192 16.0067 6.78857 15.6317 6.78857 15.3817C6.78857 15.1317 6.72192 14.7567 6.64685 14.5483C6.56348 14.3317 6.3385 14.015 6.10522 13.79C5.86353 13.565 5.53015 13.34 4.8302 13.09L4.8302 11.2733L4.8302 11.2712ZM14.7059 12.015C14.5643 12.0816 14.3643 12.2233 14.256 12.3233C14.1476 12.4233 13.9893 12.6566 13.9059 12.84C13.8226 13.0233 13.7476 13.3233 13.7476 13.5066C13.7476 13.69 13.8143 13.99 13.8976 14.1733C13.981 14.3566 14.1809 14.6066 14.3392 14.7233C14.4976 14.8483 14.7726 14.99 14.9559 15.0483C15.1476 15.1066 15.4143 15.1233 15.5809 15.09C15.7393 15.065 16.0226 14.9483 16.2059 14.8483C16.4393 14.715 16.606 14.5233 16.7726 14.2066C16.8976 13.9566 16.9976 13.665 16.9976 13.5483C16.9976 13.4316 16.9559 13.1983 16.9143 13.0316C16.8643 12.8566 16.731 12.5983 16.5977 12.4483C16.4727 12.3066 16.2227 12.115 16.0393 12.04C15.856 11.9566 15.5393 11.8816 15.3309 11.8816C15.1226 11.8816 14.8477 11.94 14.7059 12.015ZM19.106 12.24C19.006 12.34 18.0809 13.6816 17.0476 15.215C16.006 16.7483 15.1643 18.0733 15.1643 18.1566C15.1643 18.2316 15.2393 18.3733 15.3309 18.465C15.4226 18.5566 15.5892 18.6316 15.7059 18.6316C15.8448 18.6316 15.981 18.5428 16.1143 18.365C16.2227 18.215 17.1226 16.89 18.1143 15.4233C19.256 13.7316 19.9143 12.6816 19.9143 12.5483C19.9226 12.4316 19.856 12.2733 19.7726 12.1983C19.6893 12.115 19.5476 12.0483 19.4476 12.0483C19.356 12.0483 19.1976 12.1316 19.106 12.24ZM10.6476 13.515C10.6393 12.7316 10.6559 12.5816 10.7893 12.4483C10.8726 12.365 11.0476 12.2983 11.1726 12.2983C11.3309 12.2983 11.4559 12.365 11.5393 12.49C11.6393 12.6316 11.6559 12.8816 11.6476 13.5816C11.6226 14.44 11.6143 14.4983 11.4143 14.6483C11.2393 14.79 11.1726 14.7983 10.9976 14.7066C10.881 14.6566 10.7643 14.565 10.731 14.515C10.6976 14.465 10.6559 14.015 10.6476 13.515ZM14.9126 13.0733C14.8042 13.1817 14.7208 13.3483 14.7292 13.4483C14.7375 13.5483 14.7792 13.7067 14.8292 13.7983C14.8793 13.89 15.0126 14.0067 15.1459 14.0483C15.2959 14.115 15.4375 14.115 15.5792 14.0567C15.6959 14.0067 15.8375 13.8733 15.8959 13.7567C15.9459 13.64 15.9958 13.49 15.9958 13.4233C15.9958 13.3567 15.9042 13.2067 15.7876 13.09C15.6626 12.965 15.4875 12.8817 15.3458 12.8817C15.2125 12.8817 15.0209 12.965 14.9126 13.0733ZM19.3309 15.7233C19.1726 15.7733 18.9309 15.8983 18.7893 15.9983C18.6476 16.0983 18.4559 16.3483 18.356 16.5566C18.2476 16.7566 18.1643 17.065 18.1643 17.24C18.1643 17.4066 18.2227 17.69 18.2976 17.865C18.3643 18.0316 18.506 18.265 18.606 18.365C18.7059 18.4733 18.9309 18.64 19.0977 18.7233C19.2726 18.8066 19.5643 18.8816 19.7476 18.8816C19.9309 18.8816 20.2227 18.8233 20.3893 18.7483C20.5643 18.6816 20.7976 18.54 20.9059 18.44C21.0143 18.34 21.1726 18.1066 21.256 17.9233C21.3392 17.74 21.4143 17.4816 21.4143 17.34C21.4143 17.2066 21.3726 16.9566 21.3226 16.7983C21.2643 16.64 21.1559 16.4066 21.0643 16.2816C20.981 16.1483 20.7643 15.9733 20.5809 15.8816C20.3976 15.79 20.106 15.6983 19.9309 15.6733C19.7643 15.6566 19.4893 15.6816 19.3309 15.7233ZM10.731 16.2566C10.7643 16.2066 10.8643 16.1233 10.9559 16.0733C11.0476 16.015 11.1393 15.965 11.1643 15.965C11.1893 15.965 11.3059 16.0316 11.4309 16.1316C11.6643 16.2983 11.6643 16.315 11.6643 17.1983C11.6643 17.8566 11.631 18.14 11.5393 18.2816C11.4559 18.3983 11.3309 18.465 11.1809 18.465C11.0559 18.465 10.8893 18.3983 10.8059 18.315C10.6809 18.1983 10.6559 18.0316 10.6643 17.2566C10.6643 16.7566 10.6976 16.2983 10.731 16.2566ZM19.5376 16.715C19.4375 16.7567 19.3209 16.865 19.2626 16.9567C19.2042 17.0567 19.1626 17.1983 19.1626 17.2817C19.1542 17.3567 19.2292 17.5233 19.3292 17.6567C19.4459 17.815 19.5709 17.8817 19.7458 17.8817C19.9126 17.8817 20.0792 17.8067 20.2042 17.6733C20.3209 17.5567 20.4126 17.3817 20.4126 17.2733C20.4209 17.1733 20.3542 17.0067 20.2709 16.9067C20.1875 16.8067 20.0292 16.7067 19.9126 16.6817C19.7959 16.6567 19.6292 16.6733 19.5376 16.715Z"
          clip-rule="evenodd" fill="#D9D9D9" fill-opacity="1" fill-rule="evenodd" mask="url(#mask_1_1396)"></path>
    <path id="Subtract"
          d="M21.7985 0L8.32593 0C3.72766 0 0.00012207 3.72758 0.00012207 8.32578L0.00012207 21.7984C0.00012207 26.3966 3.72766 30.1242 8.32593 30.1242L21.7985 30.1242C26.3967 30.1242 30.1243 26.3966 30.1243 21.7984L30.1243 8.32578C30.1243 3.72758 26.3967 0 21.7985 0ZM4.8302 11.2712C4.8385 9.47331 4.83862 9.45658 5.03857 9.25666L5.23853 9.04832L10.6636 9.04832L10.6636 9.88166C10.6636 10.6067 10.6885 10.74 10.8302 10.8817C10.9219 10.9733 11.0719 11.0483 11.1636 11.0483C11.2552 11.0483 11.4052 10.9733 11.4968 10.8817C11.6385 10.74 11.6636 10.6067 11.6636 9.04832L24.4136 9.04832L24.8302 9.46499L24.8302 13.09L24.3969 13.2483C24.1302 13.34 23.7969 13.565 23.5552 13.79C23.3219 14.015 23.0969 14.3317 23.0135 14.5483C22.9385 14.7567 22.8718 15.1317 22.8718 15.3817C22.8718 15.6317 22.9385 16.0067 23.0135 16.215C23.0969 16.4317 23.3219 16.7483 23.5552 16.9733C23.7969 17.1983 24.1302 17.4233 24.8302 17.6733L24.8302 19.4817C24.8302 21.2983 24.8302 21.2983 24.4219 21.715L11.6636 21.715L11.6636 20.8817C11.6636 20.1567 11.6385 20.0233 11.4968 19.8817C11.4052 19.79 11.2552 19.715 11.1636 19.715C11.0719 19.715 10.9219 19.79 10.8302 19.8817C10.6885 20.0233 10.6636 20.1567 10.6636 21.715L5.24683 21.715L4.8302 21.2983L4.8302 17.6733L5.26355 17.515C5.53015 17.4233 5.86353 17.1983 6.10522 16.9733C6.3385 16.7483 6.56348 16.4317 6.64685 16.215C6.72192 16.0067 6.78857 15.6317 6.78857 15.3817C6.78857 15.1317 6.72192 14.7567 6.64685 14.5483C6.56348 14.3317 6.3385 14.015 6.10522 13.79C5.86353 13.565 5.53015 13.34 4.8302 13.09L4.8302 11.2733L4.8302 11.2712ZM14.7059 12.015C14.5643 12.0816 14.3643 12.2233 14.256 12.3233C14.1476 12.4233 13.9893 12.6566 13.9059 12.84C13.8226 13.0233 13.7476 13.3233 13.7476 13.5066C13.7476 13.69 13.8143 13.99 13.8976 14.1733C13.981 14.3566 14.1809 14.6066 14.3392 14.7233C14.4976 14.8483 14.7726 14.99 14.9559 15.0483C15.1476 15.1066 15.4143 15.1233 15.5809 15.09C15.7393 15.065 16.0226 14.9483 16.2059 14.8483C16.4393 14.715 16.606 14.5233 16.7726 14.2066C16.8976 13.9566 16.9976 13.665 16.9976 13.5483C16.9976 13.4316 16.9559 13.1983 16.9143 13.0316C16.8643 12.8566 16.731 12.5983 16.5977 12.4483C16.4727 12.3066 16.2227 12.115 16.0393 12.04C15.856 11.9566 15.5393 11.8816 15.3309 11.8816C15.1226 11.8816 14.8477 11.94 14.7059 12.015ZM19.106 12.24C19.006 12.34 18.0809 13.6816 17.0476 15.215C16.006 16.7483 15.1643 18.0733 15.1643 18.1566C15.1643 18.2316 15.2393 18.3733 15.3309 18.465C15.4226 18.5566 15.5892 18.6316 15.7059 18.6316C15.8448 18.6316 15.981 18.5428 16.1143 18.365C16.2227 18.215 17.1226 16.89 18.1143 15.4233C19.256 13.7316 19.9143 12.6816 19.9143 12.5483C19.9226 12.4316 19.856 12.2733 19.7726 12.1983C19.6893 12.115 19.5476 12.0483 19.4476 12.0483C19.356 12.0483 19.1976 12.1316 19.106 12.24ZM10.6476 13.515C10.6393 12.7316 10.6559 12.5816 10.7893 12.4483C10.8726 12.365 11.0476 12.2983 11.1726 12.2983C11.3309 12.2983 11.4559 12.365 11.5393 12.49C11.6393 12.6316 11.6559 12.8816 11.6476 13.5816C11.6226 14.44 11.6143 14.4983 11.4143 14.6483C11.2393 14.79 11.1726 14.7983 10.9976 14.7066C10.881 14.6566 10.7643 14.565 10.731 14.515C10.6976 14.465 10.6559 14.015 10.6476 13.515ZM14.9126 13.0733C14.8042 13.1817 14.7208 13.3483 14.7292 13.4483C14.7375 13.5483 14.7792 13.7067 14.8292 13.7983C14.8793 13.89 15.0126 14.0067 15.1459 14.0483C15.2959 14.115 15.4375 14.115 15.5792 14.0567C15.6959 14.0067 15.8375 13.8733 15.8959 13.7567C15.9459 13.64 15.9958 13.49 15.9958 13.4233C15.9958 13.3567 15.9042 13.2067 15.7876 13.09C15.6626 12.965 15.4875 12.8817 15.3458 12.8817C15.2125 12.8817 15.0209 12.965 14.9126 13.0733ZM19.3309 15.7233C19.1726 15.7733 18.9309 15.8983 18.7893 15.9983C18.6476 16.0983 18.4559 16.3483 18.356 16.5566C18.2476 16.7566 18.1643 17.065 18.1643 17.24C18.1643 17.4066 18.2227 17.69 18.2976 17.865C18.3643 18.0316 18.506 18.265 18.606 18.365C18.7059 18.4733 18.9309 18.64 19.0977 18.7233C19.2726 18.8066 19.5643 18.8816 19.7476 18.8816C19.9309 18.8816 20.2227 18.8233 20.3893 18.7483C20.5643 18.6816 20.7976 18.54 20.9059 18.44C21.0143 18.34 21.1726 18.1066 21.256 17.9233C21.3392 17.74 21.4143 17.4816 21.4143 17.34C21.4143 17.2066 21.3726 16.9566 21.3226 16.7983C21.2643 16.64 21.1559 16.4066 21.0643 16.2816C20.981 16.1483 20.7643 15.9733 20.5809 15.8816C20.3976 15.79 20.106 15.6983 19.9309 15.6733C19.7643 15.6566 19.4893 15.6816 19.3309 15.7233ZM10.731 16.2566C10.7643 16.2066 10.8643 16.1233 10.9559 16.0733C11.0476 16.015 11.1393 15.965 11.1643 15.965C11.1893 15.965 11.3059 16.0316 11.4309 16.1316C11.6643 16.2983 11.6643 16.315 11.6643 17.1983C11.6643 17.8566 11.631 18.14 11.5393 18.2816C11.4559 18.3983 11.3309 18.465 11.1809 18.465C11.0559 18.465 10.8893 18.3983 10.8059 18.315C10.6809 18.1983 10.6559 18.0316 10.6643 17.2566C10.6643 16.7566 10.6976 16.2983 10.731 16.2566ZM19.5376 16.715C19.4375 16.7567 19.3209 16.865 19.2626 16.9567C19.2042 17.0567 19.1626 17.1983 19.1626 17.2817C19.1542 17.3567 19.2292 17.5233 19.3292 17.6567C19.4459 17.815 19.5709 17.8817 19.7458 17.8817C19.9126 17.8817 20.0792 17.8067 20.2042 17.6733C20.3209 17.5567 20.4126 17.3817 20.4126 17.2733C20.4209 17.1733 20.3542 17.0067 20.2709 16.9067C20.1875 16.8067 20.0292 16.7067 19.9126 16.6817C19.7959 16.6567 19.6292 16.6733 19.5376 16.715Z"
          clip-rule="evenodd" fill="url(#paint_linear_1_1396_0)" fill-opacity="0" fill-rule="evenodd"
          mask="url(#mask_1_1396)"></path>
    <path id="Subtract"
          d="M21.7985 0L8.32593 0C3.72766 0 0.00012207 3.72758 0.00012207 8.32578L0.00012207 21.7984C0.00012207 26.3966 3.72766 30.1242 8.32593 30.1242L21.7985 30.1242C26.3967 30.1242 30.1243 26.3966 30.1243 21.7984L30.1243 8.32578C30.1243 3.72758 26.3967 0 21.7985 0ZM4.8302 11.2712C4.8385 9.47331 4.83862 9.45658 5.03857 9.25666L5.23853 9.04832L10.6636 9.04832L10.6636 9.88166C10.6636 10.6067 10.6885 10.74 10.8302 10.8817C10.9219 10.9733 11.0719 11.0483 11.1636 11.0483C11.2552 11.0483 11.4052 10.9733 11.4968 10.8817C11.6385 10.74 11.6636 10.6067 11.6636 9.04832L24.4136 9.04832L24.8302 9.46499L24.8302 13.09L24.3969 13.2483C24.1302 13.34 23.7969 13.565 23.5552 13.79C23.3219 14.015 23.0969 14.3317 23.0135 14.5483C22.9385 14.7567 22.8718 15.1317 22.8718 15.3817C22.8718 15.6317 22.9385 16.0067 23.0135 16.215C23.0969 16.4317 23.3219 16.7483 23.5552 16.9733C23.7969 17.1983 24.1302 17.4233 24.8302 17.6733L24.8302 19.4817C24.8302 21.2983 24.8302 21.2983 24.4219 21.715L11.6636 21.715L11.6636 20.8817C11.6636 20.1567 11.6385 20.0233 11.4968 19.8817C11.4052 19.79 11.2552 19.715 11.1636 19.715C11.0719 19.715 10.9219 19.79 10.8302 19.8817C10.6885 20.0233 10.6636 20.1567 10.6636 21.715L5.24683 21.715L4.8302 21.2983L4.8302 17.6733L5.26355 17.515C5.53015 17.4233 5.86353 17.1983 6.10522 16.9733C6.3385 16.7483 6.56348 16.4317 6.64685 16.215C6.72192 16.0067 6.78857 15.6317 6.78857 15.3817C6.78857 15.1317 6.72192 14.7567 6.64685 14.5483C6.56348 14.3317 6.3385 14.015 6.10522 13.79C5.86353 13.565 5.53015 13.34 4.8302 13.09L4.8302 11.2733L4.8302 11.2712ZM14.7059 12.015C14.5643 12.0816 14.3643 12.2233 14.256 12.3233C14.1476 12.4233 13.9893 12.6566 13.9059 12.84C13.8226 13.0233 13.7476 13.3233 13.7476 13.5066C13.7476 13.69 13.8143 13.99 13.8976 14.1733C13.981 14.3566 14.1809 14.6066 14.3392 14.7233C14.4976 14.8483 14.7726 14.99 14.9559 15.0483C15.1476 15.1066 15.4143 15.1233 15.5809 15.09C15.7393 15.065 16.0226 14.9483 16.2059 14.8483C16.4393 14.715 16.606 14.5233 16.7726 14.2066C16.8976 13.9566 16.9976 13.665 16.9976 13.5483C16.9976 13.4316 16.9559 13.1983 16.9143 13.0316C16.8643 12.8566 16.731 12.5983 16.5977 12.4483C16.4727 12.3066 16.2227 12.115 16.0393 12.04C15.856 11.9566 15.5393 11.8816 15.3309 11.8816C15.1226 11.8816 14.8477 11.94 14.7059 12.015ZM19.106 12.24C19.006 12.34 18.0809 13.6816 17.0476 15.215C16.006 16.7483 15.1643 18.0733 15.1643 18.1566C15.1643 18.2316 15.2393 18.3733 15.3309 18.465C15.4226 18.5566 15.5892 18.6316 15.7059 18.6316C15.8448 18.6316 15.981 18.5428 16.1143 18.365C16.2227 18.215 17.1226 16.89 18.1143 15.4233C19.256 13.7316 19.9143 12.6816 19.9143 12.5483C19.9226 12.4316 19.856 12.2733 19.7726 12.1983C19.6893 12.115 19.5476 12.0483 19.4476 12.0483C19.356 12.0483 19.1976 12.1316 19.106 12.24ZM10.6476 13.515C10.6393 12.7316 10.6559 12.5816 10.7893 12.4483C10.8726 12.365 11.0476 12.2983 11.1726 12.2983C11.3309 12.2983 11.4559 12.365 11.5393 12.49C11.6393 12.6316 11.6559 12.8816 11.6476 13.5816C11.6226 14.44 11.6143 14.4983 11.4143 14.6483C11.2393 14.79 11.1726 14.7983 10.9976 14.7066C10.881 14.6566 10.7643 14.565 10.731 14.515C10.6976 14.465 10.6559 14.015 10.6476 13.515ZM14.9126 13.0733C14.8042 13.1817 14.7208 13.3483 14.7292 13.4483C14.7375 13.5483 14.7792 13.7067 14.8292 13.7983C14.8793 13.89 15.0126 14.0067 15.1459 14.0483C15.2959 14.115 15.4375 14.115 15.5792 14.0567C15.6959 14.0067 15.8375 13.8733 15.8959 13.7567C15.9459 13.64 15.9958 13.49 15.9958 13.4233C15.9958 13.3567 15.9042 13.2067 15.7876 13.09C15.6626 12.965 15.4875 12.8817 15.3458 12.8817C15.2125 12.8817 15.0209 12.965 14.9126 13.0733ZM19.3309 15.7233C19.1726 15.7733 18.9309 15.8983 18.7893 15.9983C18.6476 16.0983 18.4559 16.3483 18.356 16.5566C18.2476 16.7566 18.1643 17.065 18.1643 17.24C18.1643 17.4066 18.2227 17.69 18.2976 17.865C18.3643 18.0316 18.506 18.265 18.606 18.365C18.7059 18.4733 18.9309 18.64 19.0977 18.7233C19.2726 18.8066 19.5643 18.8816 19.7476 18.8816C19.9309 18.8816 20.2227 18.8233 20.3893 18.7483C20.5643 18.6816 20.7976 18.54 20.9059 18.44C21.0143 18.34 21.1726 18.1066 21.256 17.9233C21.3392 17.74 21.4143 17.4816 21.4143 17.34C21.4143 17.2066 21.3726 16.9566 21.3226 16.7983C21.2643 16.64 21.1559 16.4066 21.0643 16.2816C20.981 16.1483 20.7643 15.9733 20.5809 15.8816C20.3976 15.79 20.106 15.6983 19.9309 15.6733C19.7643 15.6566 19.4893 15.6816 19.3309 15.7233ZM10.731 16.2566C10.7643 16.2066 10.8643 16.1233 10.9559 16.0733C11.0476 16.015 11.1393 15.965 11.1643 15.965C11.1893 15.965 11.3059 16.0316 11.4309 16.1316C11.6643 16.2983 11.6643 16.315 11.6643 17.1983C11.6643 17.8566 11.631 18.14 11.5393 18.2816C11.4559 18.3983 11.3309 18.465 11.1809 18.465C11.0559 18.465 10.8893 18.3983 10.8059 18.315C10.6809 18.1983 10.6559 18.0316 10.6643 17.2566C10.6643 16.7566 10.6976 16.2983 10.731 16.2566ZM19.5376 16.715C19.4375 16.7567 19.3209 16.865 19.2626 16.9567C19.2042 17.0567 19.1626 17.1983 19.1626 17.2817C19.1542 17.3567 19.2292 17.5233 19.3292 17.6567C19.4459 17.815 19.5709 17.8817 19.7458 17.8817C19.9126 17.8817 20.0792 17.8067 20.2042 17.6733C20.3209 17.5567 20.4126 17.3817 20.4126 17.2733C20.4209 17.1733 20.3542 17.0067 20.2709 16.9067C20.1875 16.8067 20.0292 16.7067 19.9126 16.6817C19.7959 16.6567 19.6292 16.6733 19.5376 16.715Z"
          clip-rule="evenodd" fill="url(#paint_linear_1_1396_1)" fill-opacity="1" fill-rule="evenodd"
          mask="url(#mask_1_1396)"></path>
    <path id="Subtract"
          d="M21.7985 0L8.32593 0C3.72766 0 0.00012207 3.72758 0.00012207 8.32578L0.00012207 21.7984C0.00012207 26.3966 3.72766 30.1242 8.32593 30.1242L21.7985 30.1242C26.3967 30.1242 30.1243 26.3966 30.1243 21.7984L30.1243 8.32578C30.1243 3.72758 26.3967 0 21.7985 0ZM4.8302 11.2712C4.8385 9.47331 4.83862 9.45658 5.03857 9.25666L5.23853 9.04832L10.6636 9.04832L10.6636 9.88166C10.6636 10.6067 10.6885 10.74 10.8302 10.8817C10.9219 10.9733 11.0719 11.0483 11.1636 11.0483C11.2552 11.0483 11.4052 10.9733 11.4968 10.8817C11.6385 10.74 11.6636 10.6067 11.6636 9.04832L24.4136 9.04832L24.8302 9.46499L24.8302 13.09L24.3969 13.2483C24.1302 13.34 23.7969 13.565 23.5552 13.79C23.3219 14.015 23.0969 14.3317 23.0135 14.5483C22.9385 14.7567 22.8718 15.1317 22.8718 15.3817C22.8718 15.6317 22.9385 16.0067 23.0135 16.215C23.0969 16.4317 23.3219 16.7483 23.5552 16.9733C23.7969 17.1983 24.1302 17.4233 24.8302 17.6733L24.8302 19.4817C24.8302 21.2983 24.8302 21.2983 24.4219 21.715L11.6636 21.715L11.6636 20.8817C11.6636 20.1567 11.6385 20.0233 11.4968 19.8817C11.4052 19.79 11.2552 19.715 11.1636 19.715C11.0719 19.715 10.9219 19.79 10.8302 19.8817C10.6885 20.0233 10.6636 20.1567 10.6636 21.715L5.24683 21.715L4.8302 21.2983L4.8302 17.6733L5.26355 17.515C5.53015 17.4233 5.86353 17.1983 6.10522 16.9733C6.3385 16.7483 6.56348 16.4317 6.64685 16.215C6.72192 16.0067 6.78857 15.6317 6.78857 15.3817C6.78857 15.1317 6.72192 14.7567 6.64685 14.5483C6.56348 14.3317 6.3385 14.015 6.10522 13.79C5.86353 13.565 5.53015 13.34 4.8302 13.09L4.8302 11.2733L4.8302 11.2712ZM14.7059 12.015C14.5643 12.0816 14.3643 12.2233 14.256 12.3233C14.1476 12.4233 13.9893 12.6566 13.9059 12.84C13.8226 13.0233 13.7476 13.3233 13.7476 13.5066C13.7476 13.69 13.8143 13.99 13.8976 14.1733C13.981 14.3566 14.1809 14.6066 14.3392 14.7233C14.4976 14.8483 14.7726 14.99 14.9559 15.0483C15.1476 15.1066 15.4143 15.1233 15.5809 15.09C15.7393 15.065 16.0226 14.9483 16.2059 14.8483C16.4393 14.715 16.606 14.5233 16.7726 14.2066C16.8976 13.9566 16.9976 13.665 16.9976 13.5483C16.9976 13.4316 16.9559 13.1983 16.9143 13.0316C16.8643 12.8566 16.731 12.5983 16.5977 12.4483C16.4727 12.3066 16.2227 12.115 16.0393 12.04C15.856 11.9566 15.5393 11.8816 15.3309 11.8816C15.1226 11.8816 14.8477 11.94 14.7059 12.015ZM19.106 12.24C19.006 12.34 18.0809 13.6816 17.0476 15.215C16.006 16.7483 15.1643 18.0733 15.1643 18.1566C15.1643 18.2316 15.2393 18.3733 15.3309 18.465C15.4226 18.5566 15.5892 18.6316 15.7059 18.6316C15.8448 18.6316 15.981 18.5428 16.1143 18.365C16.2227 18.215 17.1226 16.89 18.1143 15.4233C19.256 13.7316 19.9143 12.6816 19.9143 12.5483C19.9226 12.4316 19.856 12.2733 19.7726 12.1983C19.6893 12.115 19.5476 12.0483 19.4476 12.0483C19.356 12.0483 19.1976 12.1316 19.106 12.24ZM10.6476 13.515C10.6393 12.7316 10.6559 12.5816 10.7893 12.4483C10.8726 12.365 11.0476 12.2983 11.1726 12.2983C11.3309 12.2983 11.4559 12.365 11.5393 12.49C11.6393 12.6316 11.6559 12.8816 11.6476 13.5816C11.6226 14.44 11.6143 14.4983 11.4143 14.6483C11.2393 14.79 11.1726 14.7983 10.9976 14.7066C10.881 14.6566 10.7643 14.565 10.731 14.515C10.6976 14.465 10.6559 14.015 10.6476 13.515ZM14.9126 13.0733C14.8042 13.1817 14.7208 13.3483 14.7292 13.4483C14.7375 13.5483 14.7792 13.7067 14.8292 13.7983C14.8793 13.89 15.0126 14.0067 15.1459 14.0483C15.2959 14.115 15.4375 14.115 15.5792 14.0567C15.6959 14.0067 15.8375 13.8733 15.8959 13.7567C15.9459 13.64 15.9958 13.49 15.9958 13.4233C15.9958 13.3567 15.9042 13.2067 15.7876 13.09C15.6626 12.965 15.4875 12.8817 15.3458 12.8817C15.2125 12.8817 15.0209 12.965 14.9126 13.0733ZM19.3309 15.7233C19.1726 15.7733 18.9309 15.8983 18.7893 15.9983C18.6476 16.0983 18.4559 16.3483 18.356 16.5566C18.2476 16.7566 18.1643 17.065 18.1643 17.24C18.1643 17.4066 18.2227 17.69 18.2976 17.865C18.3643 18.0316 18.506 18.265 18.606 18.365C18.7059 18.4733 18.9309 18.64 19.0977 18.7233C19.2726 18.8066 19.5643 18.8816 19.7476 18.8816C19.9309 18.8816 20.2227 18.8233 20.3893 18.7483C20.5643 18.6816 20.7976 18.54 20.9059 18.44C21.0143 18.34 21.1726 18.1066 21.256 17.9233C21.3392 17.74 21.4143 17.4816 21.4143 17.34C21.4143 17.2066 21.3726 16.9566 21.3226 16.7983C21.2643 16.64 21.1559 16.4066 21.0643 16.2816C20.981 16.1483 20.7643 15.9733 20.5809 15.8816C20.3976 15.79 20.106 15.6983 19.9309 15.6733C19.7643 15.6566 19.4893 15.6816 19.3309 15.7233ZM10.731 16.2566C10.7643 16.2066 10.8643 16.1233 10.9559 16.0733C11.0476 16.015 11.1393 15.965 11.1643 15.965C11.1893 15.965 11.3059 16.0316 11.4309 16.1316C11.6643 16.2983 11.6643 16.315 11.6643 17.1983C11.6643 17.8566 11.631 18.14 11.5393 18.2816C11.4559 18.3983 11.3309 18.465 11.1809 18.465C11.0559 18.465 10.8893 18.3983 10.8059 18.315C10.6809 18.1983 10.6559 18.0316 10.6643 17.2566C10.6643 16.7566 10.6976 16.2983 10.731 16.2566ZM19.5376 16.715C19.4375 16.7567 19.3209 16.865 19.2626 16.9567C19.2042 17.0567 19.1626 17.1983 19.1626 17.2817C19.1542 17.3567 19.2292 17.5233 19.3292 17.6567C19.4459 17.815 19.5709 17.8817 19.7458 17.8817C19.9126 17.8817 20.0792 17.8067 20.2042 17.6733C20.3209 17.5567 20.4126 17.3817 20.4126 17.2733C20.4209 17.1733 20.3542 17.0067 20.2709 16.9067C20.1875 16.8067 20.0292 16.7067 19.9126 16.6817C19.7959 16.6567 19.6292 16.6733 19.5376 16.715Z"
          clip-rule="evenodd" fill="#151517" fill-opacity="1" fill-rule="evenodd" mask="url(#mask_1_1396)"></path>
    <path id="Subtract"
          d="M21.7985 0L8.32593 0C3.72766 0 0.00012207 3.72758 0.00012207 8.32578L0.00012207 21.7984C0.00012207 26.3966 3.72766 30.1242 8.32593 30.1242L21.7985 30.1242C26.3967 30.1242 30.1243 26.3966 30.1243 21.7984L30.1243 8.32578C30.1243 3.72758 26.3967 0 21.7985 0ZM4.8302 11.2712C4.8385 9.47331 4.83862 9.45658 5.03857 9.25666L5.23853 9.04832L10.6636 9.04832L10.6636 9.88166C10.6636 10.6067 10.6885 10.74 10.8302 10.8817C10.9219 10.9733 11.0719 11.0483 11.1636 11.0483C11.2552 11.0483 11.4052 10.9733 11.4968 10.8817C11.6385 10.74 11.6636 10.6067 11.6636 9.04832L24.4136 9.04832L24.8302 9.46499L24.8302 13.09L24.3969 13.2483C24.1302 13.34 23.7969 13.565 23.5552 13.79C23.3219 14.015 23.0969 14.3317 23.0135 14.5483C22.9385 14.7567 22.8718 15.1317 22.8718 15.3817C22.8718 15.6317 22.9385 16.0067 23.0135 16.215C23.0969 16.4317 23.3219 16.7483 23.5552 16.9733C23.7969 17.1983 24.1302 17.4233 24.8302 17.6733L24.8302 19.4817C24.8302 21.2983 24.8302 21.2983 24.4219 21.715L11.6636 21.715L11.6636 20.8817C11.6636 20.1567 11.6385 20.0233 11.4968 19.8817C11.4052 19.79 11.2552 19.715 11.1636 19.715C11.0719 19.715 10.9219 19.79 10.8302 19.8817C10.6885 20.0233 10.6636 20.1567 10.6636 21.715L5.24683 21.715L4.8302 21.2983L4.8302 17.6733L5.26355 17.515C5.53015 17.4233 5.86353 17.1983 6.10522 16.9733C6.3385 16.7483 6.56348 16.4317 6.64685 16.215C6.72192 16.0067 6.78857 15.6317 6.78857 15.3817C6.78857 15.1317 6.72192 14.7567 6.64685 14.5483C6.56348 14.3317 6.3385 14.015 6.10522 13.79C5.86353 13.565 5.53015 13.34 4.8302 13.09L4.8302 11.2733L4.8302 11.2712ZM14.7059 12.015C14.5643 12.0816 14.3643 12.2233 14.256 12.3233C14.1476 12.4233 13.9893 12.6566 13.9059 12.84C13.8226 13.0233 13.7476 13.3233 13.7476 13.5066C13.7476 13.69 13.8143 13.99 13.8976 14.1733C13.981 14.3566 14.1809 14.6066 14.3392 14.7233C14.4976 14.8483 14.7726 14.99 14.9559 15.0483C15.1476 15.1066 15.4143 15.1233 15.5809 15.09C15.7393 15.065 16.0226 14.9483 16.2059 14.8483C16.4393 14.715 16.606 14.5233 16.7726 14.2066C16.8976 13.9566 16.9976 13.665 16.9976 13.5483C16.9976 13.4316 16.9559 13.1983 16.9143 13.0316C16.8643 12.8566 16.731 12.5983 16.5977 12.4483C16.4727 12.3066 16.2227 12.115 16.0393 12.04C15.856 11.9566 15.5393 11.8816 15.3309 11.8816C15.1226 11.8816 14.8477 11.94 14.7059 12.015ZM19.106 12.24C19.006 12.34 18.0809 13.6816 17.0476 15.215C16.006 16.7483 15.1643 18.0733 15.1643 18.1566C15.1643 18.2316 15.2393 18.3733 15.3309 18.465C15.4226 18.5566 15.5892 18.6316 15.7059 18.6316C15.8448 18.6316 15.981 18.5428 16.1143 18.365C16.2227 18.215 17.1226 16.89 18.1143 15.4233C19.256 13.7316 19.9143 12.6816 19.9143 12.5483C19.9226 12.4316 19.856 12.2733 19.7726 12.1983C19.6893 12.115 19.5476 12.0483 19.4476 12.0483C19.356 12.0483 19.1976 12.1316 19.106 12.24ZM10.6476 13.515C10.6393 12.7316 10.6559 12.5816 10.7893 12.4483C10.8726 12.365 11.0476 12.2983 11.1726 12.2983C11.3309 12.2983 11.4559 12.365 11.5393 12.49C11.6393 12.6316 11.6559 12.8816 11.6476 13.5816C11.6226 14.44 11.6143 14.4983 11.4143 14.6483C11.2393 14.79 11.1726 14.7983 10.9976 14.7066C10.881 14.6566 10.7643 14.565 10.731 14.515C10.6976 14.465 10.6559 14.015 10.6476 13.515ZM14.9126 13.0733C14.8042 13.1817 14.7208 13.3483 14.7292 13.4483C14.7375 13.5483 14.7792 13.7067 14.8292 13.7983C14.8793 13.89 15.0126 14.0067 15.1459 14.0483C15.2959 14.115 15.4375 14.115 15.5792 14.0567C15.6959 14.0067 15.8375 13.8733 15.8959 13.7567C15.9459 13.64 15.9958 13.49 15.9958 13.4233C15.9958 13.3567 15.9042 13.2067 15.7876 13.09C15.6626 12.965 15.4875 12.8817 15.3458 12.8817C15.2125 12.8817 15.0209 12.965 14.9126 13.0733ZM19.3309 15.7233C19.1726 15.7733 18.9309 15.8983 18.7893 15.9983C18.6476 16.0983 18.4559 16.3483 18.356 16.5566C18.2476 16.7566 18.1643 17.065 18.1643 17.24C18.1643 17.4066 18.2227 17.69 18.2976 17.865C18.3643 18.0316 18.506 18.265 18.606 18.365C18.7059 18.4733 18.9309 18.64 19.0977 18.7233C19.2726 18.8066 19.5643 18.8816 19.7476 18.8816C19.9309 18.8816 20.2227 18.8233 20.3893 18.7483C20.5643 18.6816 20.7976 18.54 20.9059 18.44C21.0143 18.34 21.1726 18.1066 21.256 17.9233C21.3392 17.74 21.4143 17.4816 21.4143 17.34C21.4143 17.2066 21.3726 16.9566 21.3226 16.7983C21.2643 16.64 21.1559 16.4066 21.0643 16.2816C20.981 16.1483 20.7643 15.9733 20.5809 15.8816C20.3976 15.79 20.106 15.6983 19.9309 15.6733C19.7643 15.6566 19.4893 15.6816 19.3309 15.7233ZM10.731 16.2566C10.7643 16.2066 10.8643 16.1233 10.9559 16.0733C11.0476 16.015 11.1393 15.965 11.1643 15.965C11.1893 15.965 11.3059 16.0316 11.4309 16.1316C11.6643 16.2983 11.6643 16.315 11.6643 17.1983C11.6643 17.8566 11.631 18.14 11.5393 18.2816C11.4559 18.3983 11.3309 18.465 11.1809 18.465C11.0559 18.465 10.8893 18.3983 10.8059 18.315C10.6809 18.1983 10.6559 18.0316 10.6643 17.2566C10.6643 16.7566 10.6976 16.2983 10.731 16.2566ZM19.5376 16.715C19.4375 16.7567 19.3209 16.865 19.2626 16.9567C19.2042 17.0567 19.1626 17.1983 19.1626 17.2817C19.1542 17.3567 19.2292 17.5233 19.3292 17.6567C19.4459 17.815 19.5709 17.8817 19.7458 17.8817C19.9126 17.8817 20.0792 17.8067 20.2042 17.6733C20.3209 17.5567 20.4126 17.3817 20.4126 17.2733C20.4209 17.1733 20.3542 17.0067 20.2709 16.9067C20.1875 16.8067 20.0292 16.7067 19.9126 16.6817C19.7959 16.6567 19.6292 16.6733 19.5376 16.715Z"
          clip-rule="evenodd" fill="#FFFFFF" fill-opacity="1" fill-rule="evenodd" mask="url(#mask_1_1396)"></path>
    <path id="Subtract"
          d="M8.32593 0L21.7985 0C26.3967 0 30.1243 3.72758 30.1243 8.32578L30.1243 21.7984C30.1243 26.3966 26.3967 30.1242 21.7985 30.1242L8.32593 30.1242C3.72766 30.1242 0.00012207 26.3966 0.00012207 21.7984L0.00012207 8.32578C0.00012207 3.72758 3.72766 0 8.32593 0ZM8.32593 0.832577L21.7985 0.832577Q22.6528 0.832577 23.4652 1.01726Q24.103 1.16226 24.715 1.42109Q25.3416 1.6861 25.9014 2.05292Q26.543 2.47326 27.097 3.02728Q27.6512 3.58147 28.0717 4.22327Q28.4383 4.78299 28.7032 5.40934Q28.9624 6.02207 29.1074 6.66073Q29.2917 7.47232 29.2917 8.32578L29.2917 21.7984Q29.2917 22.6517 29.1075 23.4632Q28.9624 24.102 28.7032 24.7148Q28.4383 25.3411 28.0717 25.9008Q27.6513 26.5427 27.097 27.0969Q26.543 27.6509 25.9014 28.0712Q25.3416 28.4381 24.715 28.7031Q24.103 28.9619 23.4652 29.1069Q22.6528 29.2916 21.7985 29.2916L8.32593 29.2916Q7.47309 29.2916 6.66202 29.1075Q6.02275 28.9625 5.40942 28.7031Q4.78361 28.4384 4.22431 28.0721Q3.58203 27.6515 3.02747 27.0969Q2.47263 26.5421 2.0519 25.8995Q1.68582 25.3404 1.42126 24.7148Q1.16192 24.1018 1.01684 23.4628Q0.832642 22.6515 0.832642 21.7984L0.832642 8.32578Q0.832642 7.47266 1.01684 6.66137Q1.16192 6.02238 1.42126 5.40934Q1.68579 4.78384 2.05181 4.22479Q2.47257 3.58212 3.02747 3.02728Q3.58203 2.47271 4.22431 2.05208Q4.78361 1.6858 5.40942 1.42109Q6.02275 1.16169 6.66203 1.01662Q7.4731 0.832577 8.32593 0.832577ZM4.00574 10.2122Q4.00134 10.4747 3.99768 11.2674L3.99768 13.6767L4.55017 13.8741Q4.96667 14.0228 5.22449 14.1711Q5.40295 14.2737 5.52722 14.3893Q5.64624 14.5041 5.75439 14.6557Q5.84497 14.7826 5.86353 14.8303Q5.896 14.9206 5.92529 15.0908Q5.95593 15.2683 5.95593 15.3817Q5.95593 15.495 5.92529 15.6725Q5.896 15.8427 5.86975 15.9161Q5.84497 15.9807 5.75439 16.1076Q5.64624 16.2592 5.53784 16.364Q5.40234 16.4902 5.23877 16.5969Q5.08911 16.6946 4.97778 16.733L3.99768 17.0911L3.99768 21.6432L4.90198 22.5476L24.7717 22.5476L25.0165 22.2977Q25.2512 22.0582 25.3528 21.9044Q25.5325 21.6321 25.5981 21.2731Q25.645 21.0169 25.6561 20.5587Q25.6627 20.2866 25.6627 19.4817L25.6627 17.0866L25.1102 16.8892Q24.6937 16.7405 24.4359 16.5922Q24.2574 16.4896 24.1332 16.374Q24.0142 16.2592 23.906 16.1076Q23.8154 15.9807 23.7969 15.933Q23.7644 15.8427 23.7351 15.6725Q23.7045 15.495 23.7045 15.3817Q23.7045 15.2683 23.7351 15.0908Q23.7644 14.9206 23.7906 14.8472Q23.8154 14.7826 23.906 14.6557Q24.0142 14.5041 24.1226 14.3993Q24.2581 14.2731 24.4216 14.1664Q24.5713 14.0687 24.6826 14.0303L25.6627 13.6722L25.6627 9.12012L24.7584 8.21574L4.88367 8.21574L4.44983 8.66793Q4.26514 8.85262 4.17493 9.03721Q4.06738 9.25697 4.0343 9.57972Q4.0127 9.78966 4.00574 10.2122ZM4.8302 13.09L4.8302 11.2712C4.8385 9.47331 4.83862 9.45658 5.03857 9.25666L5.23853 9.04832L10.6636 9.04832L10.6636 9.88166C10.6636 10.6067 10.6885 10.74 10.8302 10.8817C10.9219 10.9733 11.0719 11.0483 11.1636 11.0483C11.2552 11.0483 11.4052 10.9733 11.4968 10.8817C11.6385 10.74 11.6636 10.6067 11.6636 9.04832L24.4136 9.04832L24.8302 9.46499L24.8302 13.09L24.3969 13.2483C24.1302 13.34 23.7969 13.565 23.5552 13.79C23.3219 14.015 23.0969 14.3317 23.0135 14.5483C22.9385 14.7567 22.8718 15.1317 22.8718 15.3817C22.8718 15.6317 22.9385 16.0067 23.0135 16.215C23.0969 16.4317 23.3219 16.7483 23.5552 16.9733C23.7969 17.1983 24.1302 17.4233 24.8302 17.6733L24.8302 19.4817C24.8302 21.2983 24.8302 21.2983 24.4219 21.715L11.6636 21.715L11.6636 20.8817C11.6636 20.1567 11.6385 20.0233 11.4968 19.8817C11.4052 19.79 11.2552 19.715 11.1636 19.715C11.0719 19.715 10.9219 19.79 10.8302 19.8817C10.6885 20.0233 10.6636 20.1567 10.6636 21.715L5.24683 21.715L4.8302 21.2983L4.8302 17.6733L5.26355 17.515C5.53015 17.4233 5.86353 17.1983 6.10522 16.9733C6.3385 16.7483 6.56348 16.4317 6.64685 16.215C6.72192 16.0067 6.78857 15.6317 6.78857 15.3817C6.78857 15.1317 6.72192 14.7567 6.64685 14.5483C6.56348 14.3317 6.3385 14.015 6.10522 13.79C5.86353 13.565 5.53015 13.34 4.8302 13.09ZM10.9976 14.7066C11.1726 14.7983 11.2393 14.79 11.4143 14.6483C11.6143 14.4983 11.6226 14.44 11.6476 13.5816C11.6559 12.8816 11.6393 12.6316 11.5393 12.49C11.4559 12.365 11.3309 12.2983 11.1726 12.2983C11.0476 12.2983 10.8726 12.365 10.7893 12.4483C10.6559 12.5816 10.6393 12.7316 10.6476 13.515C10.6559 14.015 10.6976 14.465 10.731 14.515C10.7643 14.565 10.881 14.6566 10.9976 14.7066ZM10.9559 16.0733C10.8643 16.1233 10.7643 16.2066 10.731 16.2566C10.6976 16.2983 10.6643 16.7566 10.6643 17.2566C10.6559 18.0316 10.6809 18.1983 10.8059 18.315C10.8893 18.3983 11.0559 18.465 11.1809 18.465C11.3309 18.465 11.4559 18.3983 11.5393 18.2816C11.631 18.14 11.6643 17.8566 11.6643 17.1983C11.6643 16.315 11.6643 16.2983 11.4309 16.1316C11.3059 16.0316 11.1893 15.965 11.1643 15.965C11.1393 15.965 11.0476 16.015 10.9559 16.0733ZM14.7059 12.015C14.5643 12.0816 14.3643 12.2233 14.256 12.3233C14.1476 12.4233 13.9893 12.6566 13.9059 12.84C13.8226 13.0233 13.7476 13.3233 13.7476 13.5066C13.7476 13.69 13.8143 13.99 13.8976 14.1733C13.981 14.3566 14.1809 14.6066 14.3392 14.7233C14.4976 14.8483 14.7726 14.99 14.9559 15.0483C15.1476 15.1066 15.4143 15.1233 15.5809 15.09C15.7393 15.065 16.0226 14.9483 16.2059 14.8483C16.2615 14.8166 16.3133 14.7815 16.3622 14.7423C16.5187 14.6166 16.6456 14.4479 16.7726 14.2066C16.8079 14.136 16.8413 14.0619 16.8709 13.9895C16.9461 13.8057 16.9976 13.632 16.9976 13.5483C16.9976 13.4316 16.9559 13.1983 16.9143 13.0316C16.8643 12.8566 16.731 12.5983 16.5977 12.4483C16.4727 12.3066 16.2227 12.115 16.0393 12.04C15.856 11.9566 15.5393 11.8816 15.3309 11.8816C15.1226 11.8816 14.8477 11.94 14.7059 12.015ZM17.6048 14.3912C17.4258 14.6549 17.2386 14.9316 17.0476 15.215C17.029 15.2424 17.0104 15.2698 16.9919 15.2971C15.9761 16.7953 15.1643 18.0748 15.1643 18.1566C15.1643 18.2316 15.2393 18.3733 15.3309 18.465C15.4226 18.5566 15.5892 18.6316 15.7059 18.6316C15.8448 18.6316 15.981 18.5428 16.1143 18.365C16.2053 18.239 16.8542 17.2849 17.647 16.114C17.7501 15.9616 17.8558 15.8055 17.9629 15.6471C18.0131 15.573 18.0635 15.4983 18.1143 15.4233C19.256 13.7316 19.9143 12.6816 19.9143 12.5483C19.9226 12.4316 19.856 12.2733 19.7726 12.1983C19.6893 12.115 19.5476 12.0483 19.4476 12.0483C19.356 12.0483 19.1976 12.1316 19.106 12.24C19.0245 12.3215 18.3946 13.2282 17.6048 14.3912ZM18.6217 16.1577C18.5279 16.2659 18.4346 16.402 18.3708 16.5268C18.3656 16.5368 18.3607 16.5468 18.356 16.5566C18.2476 16.7566 18.1643 17.065 18.1643 17.24C18.1643 17.4066 18.2227 17.69 18.2976 17.865C18.3643 18.0316 18.506 18.265 18.606 18.365C18.7059 18.4733 18.9309 18.64 19.0977 18.7233C19.2726 18.8066 19.5643 18.8816 19.7476 18.8816C19.9309 18.8816 20.2227 18.8233 20.3893 18.7483C20.5643 18.6816 20.7976 18.54 20.9059 18.44C21.0143 18.34 21.1726 18.1066 21.256 17.9233C21.3392 17.74 21.4143 17.4816 21.4143 17.34C21.4143 17.2066 21.3726 16.9566 21.3226 16.7983C21.2643 16.64 21.1559 16.4066 21.0643 16.2816C20.981 16.1483 20.7643 15.9733 20.5809 15.8816C20.3976 15.79 20.106 15.6983 19.9309 15.6733C19.7643 15.6566 19.4893 15.6816 19.3309 15.7233C19.1726 15.7733 18.9309 15.8983 18.7893 15.9983C18.7378 16.0347 18.6796 16.0909 18.6217 16.1577ZM20.4126 17.2733C20.4209 17.1733 20.3542 17.0067 20.2709 16.9067C20.1875 16.8067 20.0292 16.7067 19.9126 16.6817C19.7959 16.6567 19.6292 16.6733 19.5376 16.715C19.4375 16.7567 19.3209 16.865 19.2626 16.9567C19.2042 17.0567 19.1626 17.1983 19.1626 17.2817C19.1542 17.3567 19.2292 17.5233 19.3292 17.6567C19.4459 17.815 19.5709 17.8817 19.7458 17.8817C19.9126 17.8817 20.0792 17.8067 20.2042 17.6733C20.3209 17.5567 20.4126 17.3817 20.4126 17.2733ZM15.1459 14.0483C15.2959 14.115 15.4375 14.115 15.5792 14.0567C15.6959 14.0067 15.8375 13.8733 15.8959 13.7567C15.9459 13.64 15.9958 13.49 15.9958 13.4233C15.9958 13.3567 15.9042 13.2067 15.7876 13.09C15.6626 12.965 15.4875 12.8817 15.3458 12.8817C15.2125 12.8817 15.0209 12.965 14.9126 13.0733C14.8042 13.1817 14.7208 13.3483 14.7292 13.4483C14.7375 13.5483 14.7792 13.7067 14.8292 13.7983C14.8793 13.89 15.0126 14.0067 15.1459 14.0483Z"
          clip-rule="evenodd" fill="#050505" fill-opacity="0" fill-rule="evenodd"></path>
    <path id="Subtract"
          d="M8.32593 0L21.7985 0C26.3967 0 30.1243 3.72758 30.1243 8.32578L30.1243 21.7984C30.1243 26.3966 26.3967 30.1242 21.7985 30.1242L8.32593 30.1242C3.72766 30.1242 0.00012207 26.3966 0.00012207 21.7984L0.00012207 8.32578C0.00012207 3.72758 3.72766 0 8.32593 0ZM8.32593 0.832577L21.7985 0.832577Q22.6528 0.832577 23.4652 1.01726Q24.103 1.16226 24.715 1.42109Q25.3416 1.6861 25.9014 2.05292Q26.543 2.47326 27.097 3.02728Q27.6512 3.58147 28.0717 4.22327Q28.4383 4.78299 28.7032 5.40934Q28.9624 6.02207 29.1074 6.66073Q29.2917 7.47232 29.2917 8.32578L29.2917 21.7984Q29.2917 22.6517 29.1075 23.4632Q28.9624 24.102 28.7032 24.7148Q28.4383 25.3411 28.0717 25.9008Q27.6513 26.5427 27.097 27.0969Q26.543 27.6509 25.9014 28.0712Q25.3416 28.4381 24.715 28.7031Q24.103 28.9619 23.4652 29.1069Q22.6528 29.2916 21.7985 29.2916L8.32593 29.2916Q7.47309 29.2916 6.66202 29.1075Q6.02275 28.9625 5.40942 28.7031Q4.78361 28.4384 4.22431 28.0721Q3.58203 27.6515 3.02747 27.0969Q2.47263 26.5421 2.0519 25.8995Q1.68582 25.3404 1.42126 24.7148Q1.16192 24.1018 1.01684 23.4628Q0.832642 22.6515 0.832642 21.7984L0.832642 8.32578Q0.832642 7.47266 1.01684 6.66137Q1.16192 6.02238 1.42126 5.40934Q1.68579 4.78384 2.05181 4.22479Q2.47257 3.58212 3.02747 3.02728Q3.58203 2.47271 4.22431 2.05208Q4.78361 1.6858 5.40942 1.42109Q6.02275 1.16169 6.66203 1.01662Q7.4731 0.832577 8.32593 0.832577ZM4.00574 10.2122Q4.00134 10.4747 3.99768 11.2674L3.99768 13.6767L4.55017 13.8741Q4.96667 14.0228 5.22449 14.1711Q5.40295 14.2737 5.52722 14.3893Q5.64624 14.5041 5.75439 14.6557Q5.84497 14.7826 5.86353 14.8303Q5.896 14.9206 5.92529 15.0908Q5.95593 15.2683 5.95593 15.3817Q5.95593 15.495 5.92529 15.6725Q5.896 15.8427 5.86975 15.9161Q5.84497 15.9807 5.75439 16.1076Q5.64624 16.2592 5.53784 16.364Q5.40234 16.4902 5.23877 16.5969Q5.08911 16.6946 4.97778 16.733L3.99768 17.0911L3.99768 21.6432L4.90198 22.5476L24.7717 22.5476L25.0165 22.2977Q25.2512 22.0582 25.3528 21.9044Q25.5325 21.6321 25.5981 21.2731Q25.645 21.0169 25.6561 20.5587Q25.6627 20.2866 25.6627 19.4817L25.6627 17.0866L25.1102 16.8892Q24.6937 16.7405 24.4359 16.5922Q24.2574 16.4896 24.1332 16.374Q24.0142 16.2592 23.906 16.1076Q23.8154 15.9807 23.7969 15.933Q23.7644 15.8427 23.7351 15.6725Q23.7045 15.495 23.7045 15.3817Q23.7045 15.2683 23.7351 15.0908Q23.7644 14.9206 23.7906 14.8472Q23.8154 14.7826 23.906 14.6557Q24.0142 14.5041 24.1226 14.3993Q24.2581 14.2731 24.4216 14.1664Q24.5713 14.0687 24.6826 14.0303L25.6627 13.6722L25.6627 9.12012L24.7584 8.21574L4.88367 8.21574L4.44983 8.66793Q4.26514 8.85262 4.17493 9.03721Q4.06738 9.25697 4.0343 9.57972Q4.0127 9.78966 4.00574 10.2122ZM4.8302 13.09L4.8302 11.2712C4.8385 9.47331 4.83862 9.45658 5.03857 9.25666L5.23853 9.04832L10.6636 9.04832L10.6636 9.88166C10.6636 10.6067 10.6885 10.74 10.8302 10.8817C10.9219 10.9733 11.0719 11.0483 11.1636 11.0483C11.2552 11.0483 11.4052 10.9733 11.4968 10.8817C11.6385 10.74 11.6636 10.6067 11.6636 9.04832L24.4136 9.04832L24.8302 9.46499L24.8302 13.09L24.3969 13.2483C24.1302 13.34 23.7969 13.565 23.5552 13.79C23.3219 14.015 23.0969 14.3317 23.0135 14.5483C22.9385 14.7567 22.8718 15.1317 22.8718 15.3817C22.8718 15.6317 22.9385 16.0067 23.0135 16.215C23.0969 16.4317 23.3219 16.7483 23.5552 16.9733C23.7969 17.1983 24.1302 17.4233 24.8302 17.6733L24.8302 19.4817C24.8302 21.2983 24.8302 21.2983 24.4219 21.715L11.6636 21.715L11.6636 20.8817C11.6636 20.1567 11.6385 20.0233 11.4968 19.8817C11.4052 19.79 11.2552 19.715 11.1636 19.715C11.0719 19.715 10.9219 19.79 10.8302 19.8817C10.6885 20.0233 10.6636 20.1567 10.6636 21.715L5.24683 21.715L4.8302 21.2983L4.8302 17.6733L5.26355 17.515C5.53015 17.4233 5.86353 17.1983 6.10522 16.9733C6.3385 16.7483 6.56348 16.4317 6.64685 16.215C6.72192 16.0067 6.78857 15.6317 6.78857 15.3817C6.78857 15.1317 6.72192 14.7567 6.64685 14.5483C6.56348 14.3317 6.3385 14.015 6.10522 13.79C5.86353 13.565 5.53015 13.34 4.8302 13.09ZM10.9976 14.7066C11.1726 14.7983 11.2393 14.79 11.4143 14.6483C11.6143 14.4983 11.6226 14.44 11.6476 13.5816C11.6559 12.8816 11.6393 12.6316 11.5393 12.49C11.4559 12.365 11.3309 12.2983 11.1726 12.2983C11.0476 12.2983 10.8726 12.365 10.7893 12.4483C10.6559 12.5816 10.6393 12.7316 10.6476 13.515C10.6559 14.015 10.6976 14.465 10.731 14.515C10.7643 14.565 10.881 14.6566 10.9976 14.7066ZM10.9559 16.0733C10.8643 16.1233 10.7643 16.2066 10.731 16.2566C10.6976 16.2983 10.6643 16.7566 10.6643 17.2566C10.6559 18.0316 10.6809 18.1983 10.8059 18.315C10.8893 18.3983 11.0559 18.465 11.1809 18.465C11.3309 18.465 11.4559 18.3983 11.5393 18.2816C11.631 18.14 11.6643 17.8566 11.6643 17.1983C11.6643 16.315 11.6643 16.2983 11.4309 16.1316C11.3059 16.0316 11.1893 15.965 11.1643 15.965C11.1393 15.965 11.0476 16.015 10.9559 16.0733ZM14.7059 12.015C14.5643 12.0816 14.3643 12.2233 14.256 12.3233C14.1476 12.4233 13.9893 12.6566 13.9059 12.84C13.8226 13.0233 13.7476 13.3233 13.7476 13.5066C13.7476 13.69 13.8143 13.99 13.8976 14.1733C13.981 14.3566 14.1809 14.6066 14.3392 14.7233C14.4976 14.8483 14.7726 14.99 14.9559 15.0483C15.1476 15.1066 15.4143 15.1233 15.5809 15.09C15.7393 15.065 16.0226 14.9483 16.2059 14.8483C16.2615 14.8166 16.3133 14.7815 16.3622 14.7423C16.5187 14.6166 16.6456 14.4479 16.7726 14.2066C16.8079 14.136 16.8413 14.0619 16.8709 13.9895C16.9461 13.8057 16.9976 13.632 16.9976 13.5483C16.9976 13.4316 16.9559 13.1983 16.9143 13.0316C16.8643 12.8566 16.731 12.5983 16.5977 12.4483C16.4727 12.3066 16.2227 12.115 16.0393 12.04C15.856 11.9566 15.5393 11.8816 15.3309 11.8816C15.1226 11.8816 14.8477 11.94 14.7059 12.015ZM17.6048 14.3912C17.4258 14.6549 17.2386 14.9316 17.0476 15.215C17.029 15.2424 17.0104 15.2698 16.9919 15.2971C15.9761 16.7953 15.1643 18.0748 15.1643 18.1566C15.1643 18.2316 15.2393 18.3733 15.3309 18.465C15.4226 18.5566 15.5892 18.6316 15.7059 18.6316C15.8448 18.6316 15.981 18.5428 16.1143 18.365C16.2053 18.239 16.8542 17.2849 17.647 16.114C17.7501 15.9616 17.8558 15.8055 17.9629 15.6471C18.0131 15.573 18.0635 15.4983 18.1143 15.4233C19.256 13.7316 19.9143 12.6816 19.9143 12.5483C19.9226 12.4316 19.856 12.2733 19.7726 12.1983C19.6893 12.115 19.5476 12.0483 19.4476 12.0483C19.356 12.0483 19.1976 12.1316 19.106 12.24C19.0245 12.3215 18.3946 13.2282 17.6048 14.3912ZM18.6217 16.1577C18.5279 16.2659 18.4346 16.402 18.3708 16.5268C18.3656 16.5368 18.3607 16.5468 18.356 16.5566C18.2476 16.7566 18.1643 17.065 18.1643 17.24C18.1643 17.4066 18.2227 17.69 18.2976 17.865C18.3643 18.0316 18.506 18.265 18.606 18.365C18.7059 18.4733 18.9309 18.64 19.0977 18.7233C19.2726 18.8066 19.5643 18.8816 19.7476 18.8816C19.9309 18.8816 20.2227 18.8233 20.3893 18.7483C20.5643 18.6816 20.7976 18.54 20.9059 18.44C21.0143 18.34 21.1726 18.1066 21.256 17.9233C21.3392 17.74 21.4143 17.4816 21.4143 17.34C21.4143 17.2066 21.3726 16.9566 21.3226 16.7983C21.2643 16.64 21.1559 16.4066 21.0643 16.2816C20.981 16.1483 20.7643 15.9733 20.5809 15.8816C20.3976 15.79 20.106 15.6983 19.9309 15.6733C19.7643 15.6566 19.4893 15.6816 19.3309 15.7233C19.1726 15.7733 18.9309 15.8983 18.7893 15.9983C18.7378 16.0347 18.6796 16.0909 18.6217 16.1577ZM20.4126 17.2733C20.4209 17.1733 20.3542 17.0067 20.2709 16.9067C20.1875 16.8067 20.0292 16.7067 19.9126 16.6817C19.7959 16.6567 19.6292 16.6733 19.5376 16.715C19.4375 16.7567 19.3209 16.865 19.2626 16.9567C19.2042 17.0567 19.1626 17.1983 19.1626 17.2817C19.1542 17.3567 19.2292 17.5233 19.3292 17.6567C19.4459 17.815 19.5709 17.8817 19.7458 17.8817C19.9126 17.8817 20.0792 17.8067 20.2042 17.6733C20.3209 17.5567 20.4126 17.3817 20.4126 17.2733ZM15.1459 14.0483C15.2959 14.115 15.4375 14.115 15.5792 14.0567C15.6959 14.0067 15.8375 13.8733 15.8959 13.7567C15.9459 13.64 15.9958 13.49 15.9958 13.4233C15.9958 13.3567 15.9042 13.2067 15.7876 13.09C15.6626 12.965 15.4875 12.8817 15.3458 12.8817C15.2125 12.8817 15.0209 12.965 14.9126 13.0733C14.8042 13.1817 14.7208 13.3483 14.7292 13.4483C14.7375 13.5483 14.7792 13.7067 14.8292 13.7983C14.8793 13.89 15.0126 14.0067 15.1459 14.0483Z"
          clip-rule="evenodd" fill="#FFFFFF" fill-opacity="0.5" fill-rule="evenodd"></path>
</svg>
