<svg width="21.960449" height="22.395264" viewBox="0 0 21.9604 22.3953" xmlns="http://www.w3.org/2000/svg">
    <path id="Vector"
          d="M8.22 10.94L8.18 10.94C6.72 10.93 5.36 10.36 4.33 9.33C3.3 8.29 2.74 6.92 2.75 5.47C2.75 2.45 5.2 0 8.22 0C11.23 0 13.69 2.45 13.69 5.47C13.69 8.49 11.23 10.94 8.22 10.94ZM15.5 9.92L15.46 9.92C14.96 9.92 14.46 9.83 14.01 9.66C14.87 8.48 15.37 7.03 15.37 5.46C15.37 3.98 14.92 2.59 14.15 1.45C14.58 1.31 15.03 1.23 15.5 1.23C17.89 1.23 19.84 3.18 19.84 5.58C19.84 7.97 17.89 9.92 15.5 9.92ZM12.01 12.22C13.02 11.8 14.23 11.54 15.5 11.54C19 11.54 21.96 13.46 21.96 15.75C21.96 17.66 19.98 18.34 18.13 18.59C18.07 15.72 15.57 13.26 12.01 12.22ZM8.22 13.38C3.76 13.38 0 15.82 0 18.7C0 22.01 4.69 22.39 8.22 22.39C10.25 22.39 16.44 22.39 16.44 18.68C16.44 15.81 12.67 13.38 8.22 13.38Z"
          fill="white" fill-opacity="1" fill-rule="evenodd"></path>
</svg>
