<svg width="23" height="22.991455" viewBox="0 0 23 22.9915" fill="#ec11f1" xmlns="http://www.w3.org/2000/svg">
    <path id="Vector"
          d="M13.51 0.12C13.96 0.2 14.72 0.4 15.18 0.57C15.65 0.73 16.37 1.03 16.77 1.23C17.16 1.43 17.81 1.83 18.2 2.1C18.6 2.38 19.25 2.93 19.64 3.33C20.04 3.73 20.6 4.39 20.88 4.78C21.16 5.17 21.55 5.82 21.75 6.22C21.94 6.61 22.23 7.26 22.36 7.65C22.51 8.05 22.71 8.79 22.8 9.3C22.94 9.94 23 10.63 23 11.46C23 12.14 22.96 12.94 22.9 13.26C22.85 13.58 22.7 14.23 22.56 14.7C22.42 15.17 22.13 15.95 21.9 16.42C21.68 16.89 21.27 17.63 20.98 18.05C20.7 18.47 20.09 19.18 19.64 19.63C19.19 20.08 18.48 20.69 18.06 20.97C17.64 21.26 16.9 21.67 16.43 21.89C15.96 22.12 15.18 22.41 14.71 22.56C14.24 22.69 13.58 22.84 13.27 22.89C12.95 22.95 12.16 22.99 11.5 22.99C10.83 22.99 9.93 22.93 9.48 22.85C9.03 22.78 8.28 22.57 7.81 22.4C7.33 22.24 6.62 21.94 6.22 21.74C5.83 21.54 5.2 21.17 4.83 20.91C4.47 20.64 3.89 20.18 3.55 19.86C3.21 19.56 2.67 18.93 2.32 18.48C1.99 18.03 1.53 17.3 1.3 16.85C1.07 16.4 0.74 15.65 0.58 15.18C0.41 14.71 0.21 13.95 0.13 13.5C0.05 13.05 0 12.15 0 11.49C0 10.83 0.05 9.92 0.14 9.47C0.22 9.02 0.4 8.3 0.55 7.84C0.7 7.39 1.03 6.65 1.27 6.17C1.52 5.69 1.8 5.22 2.06 4.9L3.23 5.4L2.81 6.07C2.58 6.44 2.25 7.09 2.06 7.51C1.89 7.93 1.64 8.66 1.52 9.14C1.33 9.88 1.29 10.23 1.29 11.53C1.29 12.84 1.33 13.2 1.52 13.93C1.64 14.4 1.9 15.16 2.09 15.61C2.29 16.06 2.69 16.79 2.98 17.24C3.28 17.69 3.87 18.39 4.28 18.8C4.69 19.2 5.27 19.71 5.55 19.91C5.84 20.11 6.43 20.46 6.85 20.67C7.27 20.88 7.94 21.17 8.33 21.29C8.73 21.42 9.33 21.59 9.67 21.65C10.02 21.72 10.85 21.77 11.54 21.77C12.36 21.77 13.06 21.71 13.56 21.6C13.98 21.51 14.69 21.3 15.14 21.14C15.59 20.97 16.32 20.62 16.77 20.34C17.48 19.91 17.58 19.81 17.58 19.57C17.58 19.36 17.53 19.29 17.37 19.27C17.25 19.25 16.98 19.35 16.75 19.52C16.52 19.67 16.1 19.91 15.83 20.05C15.56 20.19 15.31 20.29 15.28 20.27C15.26 20.26 14.68 18.79 13.99 17C13.3 15.2 12.74 13.7 12.74 13.64C12.74 13.59 12.9 13.38 13.46 12.81L16.75 14.28C18.55 15.09 20.03 15.79 20.02 15.85C20.02 15.9 19.81 16.27 19.55 16.66C19.31 17.05 18.87 17.63 18.6 17.94C18.33 18.23 18.11 18.54 18.11 18.6C18.11 18.66 18.16 18.78 18.22 18.85C18.29 18.91 18.42 18.96 18.51 18.96C18.61 18.96 18.96 18.63 19.31 18.21C19.64 17.81 20.08 17.2 20.29 16.85C20.49 16.51 20.77 15.97 20.91 15.66C21.05 15.34 21.28 14.69 21.41 14.22C21.62 13.55 21.68 13.07 21.72 12.06C21.76 11.23 21.74 10.49 21.65 10C21.6 9.58 21.43 8.89 21.3 8.47C21.16 8.05 20.89 7.36 20.68 6.93C20.46 6.51 20.1 5.89 19.85 5.54C19.61 5.2 19.09 4.61 18.71 4.22C18.33 3.85 17.64 3.28 17.17 2.98C16.71 2.67 15.99 2.28 15.57 2.1C15.15 1.93 14.41 1.68 13.94 1.57C13.47 1.44 12.66 1.32 12.17 1.28C11.61 1.23 10.92 1.25 10.39 1.32C9.92 1.39 9.2 1.52 8.81 1.63C8.42 1.73 7.81 1.94 7.47 2.09C7.13 2.23 6.56 2.54 5.55 3.15L5.37 2.74C5.28 2.52 5.17 2.24 5.13 2.11C5.08 1.95 5.13 1.86 5.33 1.72C5.49 1.63 5.95 1.38 6.37 1.17C6.79 0.95 7.48 0.67 7.9 0.53C8.32 0.4 8.91 0.25 9.19 0.19C9.48 0.13 9.81 0.06 9.91 0.04C10.02 0.02 10.69 0.01 11.4 0C12.16 -0.01 13.03 0.04 13.51 0.12ZM4.85 3.37C5.24 4.31 5.53 5.13 5.51 5.21C5.48 5.29 5.36 5.35 5.24 5.35C5.12 5.35 4.34 5.08 3.49 4.73C2.65 4.39 1.92 4.07 1.88 4.03C1.83 3.99 1.83 3.86 1.84 3.72C1.87 3.59 2.17 3.19 2.51 2.82C2.84 2.46 3.3 2.04 3.54 1.88C3.77 1.74 4.01 1.63 4.07 1.64C4.12 1.66 4.48 2.44 4.85 3.37ZM14.01 2.3C14.46 2.42 14.88 2.57 14.94 2.62C15.01 2.69 14.63 3.65 12.15 9.23L11.02 9.23L10.76 8.56C10.62 8.2 10.28 7.29 9.99 6.55C9.7 5.81 9.41 5.14 9.33 5.07C9.22 4.96 9.16 4.95 9.02 5.03C8.94 5.08 8.84 5.19 8.83 5.27C8.81 5.34 9.15 6.33 9.57 7.46C10 8.59 10.34 9.52 10.32 9.52C10.31 9.52 10.12 9.68 9.53 10.25L6.27 8.79C4.48 8 3 7.33 2.98 7.31C2.98 7.29 3.08 7.05 3.22 6.78C3.38 6.51 3.6 6.16 3.97 5.73L4.5 5.93C4.87 6.08 5.13 6.12 5.38 6.08C5.62 6.04 5.83 5.93 5.98 5.74C6.15 5.54 6.22 5.33 6.22 5.08C6.22 4.89 6.13 4.54 5.83 3.87L6.07 3.68C6.2 3.57 6.63 3.32 7.01 3.11C7.39 2.91 7.74 2.78 7.78 2.82C7.81 2.87 7.95 3.19 8.07 3.53C8.28 4.1 8.32 4.16 8.58 4.16C8.78 4.16 8.87 4.11 8.89 3.96C8.91 3.86 8.81 3.48 8.43 2.48L8.73 2.38C8.91 2.32 9.36 2.22 9.72 2.14C10.19 2.05 10.81 2.02 11.78 2.04C12.87 2.07 13.35 2.12 14.01 2.3ZM16.03 3.12C16.2 3.21 16.65 3.49 17.04 3.76C17.44 4.03 18.08 4.6 18.48 5.03C18.88 5.45 19.44 6.19 19.72 6.66C20 7.13 20.22 7.59 20.22 7.68C20.22 7.77 20.16 7.86 20.09 7.88C20.03 7.9 18.53 8.47 13.56 10.36L13.19 9.98C13 9.78 12.84 9.58 12.84 9.52C12.84 9.46 13.49 7.97 14.28 6.2L15.73 2.97L16.03 3.12ZM9.24 10.91L9.19 12.01L5.91 13.28C4.11 13.98 2.58 14.55 2.52 14.55C2.45 14.55 2.33 14.29 2.25 13.93C2.17 13.59 2.06 12.91 2.01 12.43C1.94 11.8 1.94 11.26 2.01 10.62C2.06 10.13 2.16 9.54 2.21 9.33C2.27 9.12 2.38 8.74 2.47 8.49C2.59 8.09 2.65 8.03 2.82 8.07C2.93 8.1 4.42 8.76 9.24 10.91ZM20.7 8.88C20.74 9.07 20.83 9.43 20.89 9.67C20.93 9.91 21.01 10.53 21.05 11.06C21.08 11.63 21.06 12.3 20.99 12.73C20.93 13.13 20.79 13.8 20.68 14.21C20.55 14.63 20.42 14.98 20.36 15C20.31 15.03 18.83 14.4 13.84 12.19L13.79 11.06L17.07 9.79C18.88 9.09 20.42 8.53 20.48 8.53C20.55 8.52 20.65 8.68 20.7 8.88ZM12.45 10.24C12.64 10.37 12.86 10.65 12.95 10.86C13.05 11.07 13.12 11.38 13.12 11.53C13.12 11.7 13.05 11.99 12.95 12.21C12.86 12.42 12.64 12.69 12.45 12.83C12.24 12.98 11.95 13.08 11.64 13.11C11.32 13.13 11.06 13.09 10.85 12.98C10.68 12.9 10.43 12.71 10.31 12.57C10.17 12.43 10.03 12.13 9.97 11.92C9.91 11.66 9.91 11.41 9.98 11.15C10.03 10.94 10.14 10.68 10.24 10.57C10.33 10.46 10.55 10.27 10.73 10.15C11 9.99 11.18 9.95 11.59 9.97C11.96 10 12.22 10.08 12.45 10.24ZM10.23 13.55L9.04 16.18C8.4 17.63 7.73 19.11 7.28 20.11L6.83 19.86C6.58 19.72 6.05 19.36 5.66 19.07C5.28 18.77 4.74 18.29 4.47 18C4.21 17.72 3.79 17.18 3.55 16.81C3.31 16.44 3.02 15.95 2.92 15.73C2.81 15.5 2.76 15.3 2.77 15.28C2.8 15.26 4.29 14.68 6.08 13.99C7.87 13.31 9.39 12.74 9.43 12.75C9.49 12.75 9.69 12.93 10.23 13.55ZM12.02 13.86L13.3 17.2C14 19.04 14.53 20.56 14.5 20.59C14.48 20.62 14.16 20.72 13.81 20.81C13.43 20.92 12.68 21.01 11.93 21.04C11.01 21.08 10.47 21.05 9.87 20.95C9.43 20.86 8.82 20.71 8.52 20.6C8.19 20.49 8.01 20.37 8.03 20.29C8.05 20.22 8.53 19.09 9.13 17.76C9.71 16.45 10.35 15.02 10.54 14.59L10.88 13.82L12.02 13.86Z"
          stroke-opacity="0" stroke-width="0.095833"></path>
</svg>
