<svg width="9" height="9" viewBox="0 0 9 9" fill="none" xmlns="http://www.w3.org/2000/svg"
     class="max-[360px]:scale-90">
    <desc>
        Created with Pixso.
    </desc>
    <defs>
        <clipPath id="clip1_1354">
            <rect id="Bold / Like / Medal Ribbon" rx="1.6875" width="8.625" height="8.625"
                  transform="translate(0.187500 0.187500)" fill="white" fill-opacity="0"></rect>
        </clipPath>
    </defs>
    <g clip-path="url(#clip1_1354)">
        <path id="Vector"
              d="M7.12 3.37C7.12 4.82 5.94 6 4.49 6C3.04 6 1.87 4.82 1.87 3.37C1.87 1.92 3.04 0.75 4.49 0.75C5.94 0.75 7.12 1.92 7.12 3.37Z"
              fill="#FFFFFF" fill-opacity="1" fill-rule="nonzero"></path>
        <path id="Vector"
              d="M2.66 5.97L2.51 6.49C2.28 7.35 2.16 7.78 2.32 8.02C2.37 8.1 2.45 8.16 2.53 8.21C2.78 8.33 3.15 8.14 3.91 7.74C4.16 7.61 4.29 7.55 4.42 7.53C4.47 7.53 4.52 7.53 4.57 7.53C4.7 7.55 4.83 7.61 5.08 7.74C5.84 8.14 6.21 8.33 6.46 8.21C6.55 8.16 6.62 8.1 6.67 8.02C6.83 7.78 6.71 7.35 6.48 6.49L6.34 5.97C5.82 6.34 5.18 6.56 4.5 6.56C3.81 6.56 3.18 6.34 2.66 5.97Z"
              fill="#FFFFFF" fill-opacity="1" fill-rule="nonzero"></path>
    </g>
</svg>
