<svg width="9" height="9" viewBox="0 0 9 9" fill="none" xmlns="http://www.w3.org/2000/svg"
     class="max-[360px]:scale-90">
    <desc>
        Created with Pixso.
    </desc>
    <defs>
        <clipPath id="clip1_1366">
            <rect id="Bold / Like / Star" rx="1.6875" width="8.625001" height="8.625001"
                  transform="translate(0.187500 0.187500)" fill="white" fill-opacity="0"></rect>
        </clipPath>
    </defs>
    <g clip-path="url(#clip1_1366)">
        <path id="Vector"
              d="M3.43 2.02C3.9 1.17 4.14 0.74 4.5 0.74C4.85 0.74 5.09 1.17 5.56 2.02L5.69 2.24C5.82 2.49 5.89 2.61 5.99 2.69C6.1 2.77 6.23 2.8 6.49 2.86L6.73 2.91C7.65 3.12 8.11 3.22 8.22 3.58C8.33 3.93 8.02 4.3 7.39 5.03L7.23 5.22C7.05 5.43 6.96 5.53 6.92 5.66C6.88 5.79 6.89 5.93 6.92 6.21L6.94 6.47C7.04 7.45 7.09 7.94 6.8 8.16C6.51 8.37 6.08 8.17 5.22 7.78L4.99 7.67C4.75 7.56 4.63 7.5 4.5 7.5C4.36 7.5 4.24 7.56 4 7.67L3.77 7.78C2.91 8.17 2.48 8.37 2.19 8.16C1.9 7.94 1.95 7.45 2.05 6.47L2.07 6.21C2.1 5.93 2.11 5.79 2.07 5.66C2.03 5.53 1.94 5.43 1.76 5.22L1.6 5.03C0.97 4.3 0.66 3.93 0.77 3.58C0.88 3.22 1.34 3.12 2.26 2.91L2.5 2.86C2.76 2.8 2.89 2.77 3 2.69C3.1 2.61 3.17 2.49 3.3 2.24L3.43 2.02Z"
              fill="#FFFFFF" fill-opacity="1" fill-rule="nonzero"></path>
    </g>
</svg>
