<svg width="20.25" height="22.498047" viewBox="0 0 20.25 22.498" fill="none" xmlns="http://www.w3.org/2000/svg"
     class="w-[20.25px] h-[22.5px] text-white">
    <desc>
        Created with Pixso.
    </desc>
    <defs></defs>
    <path id="Vector"
          d="M7.31 0C6.38 0 5.62 0.75 5.62 1.68L5.62 2.81C5.62 3.74 6.38 4.5 7.31 4.5L12.93 4.5C13.86 4.5 14.62 3.74 14.62 2.81L14.62 1.68C14.62 0.75 13.86 0 12.93 0L7.31 0ZM0.98 3.23C1.62 2.59 2.52 2.37 3.93 2.29L3.93 2.81C3.93 4.67 5.44 6.18 7.31 6.18L12.93 6.18C14.8 6.18 16.31 4.67 16.31 2.81L16.31 2.29C17.72 2.37 18.62 2.59 19.26 3.23C20.25 4.22 20.25 5.81 20.25 8.99L20.25 15.74C20.25 18.93 20.25 20.52 19.26 21.5C18.27 22.49 16.68 22.49 13.5 22.49L6.75 22.49C3.56 22.49 1.97 22.49 0.98 21.5C0 20.52 0 18.93 0 15.74L0 8.99C0 5.81 0 4.22 0.98 3.23ZM4.5 8.71C4.03 8.71 3.65 9.09 3.65 9.56C3.65 10.02 4.03 10.4 4.5 10.4L15.75 10.4C16.21 10.4 16.59 10.02 16.59 9.56C16.59 9.09 16.21 8.71 15.75 8.71L4.5 8.71ZM5.62 12.65C5.15 12.65 4.78 13.03 4.78 13.5C4.78 13.96 5.15 14.34 5.62 14.34L14.62 14.34C15.09 14.34 15.46 13.96 15.46 13.5C15.46 13.03 15.09 12.65 14.62 12.65L5.62 12.65ZM6.75 16.59C6.28 16.59 5.9 16.97 5.9 17.43C5.9 17.9 6.28 18.28 6.75 18.28L13.5 18.28C13.96 18.28 14.34 17.9 14.34 17.43C14.34 16.97 13.96 16.59 13.5 16.59L6.75 16.59Z"
          fill="white" fill-opacity="1" fill-rule="evenodd"></path>
</svg>
